<?xml version="1.0" encoding="UTF-8" standalone="no"?>
<!DOCTYPE svg PUBLIC "-//W3C//DTD SVG 1.1//EN" "http://www.w3.org/Graphics/SVG/1.1/DTD/svg11.dtd">
<svg width="32" height="32" viewBox="0 0 32 32" version="1.1" xmlns="http://www.w3.org/2000/svg"
	xmlns:xlink="http://www.w3.org/1999/xlink" xml:space="preserve" xmlns:serif="http://www.serif.com/"
	style="fill-rule:evenodd;clip-rule:evenodd;stroke-linejoin:round;stroke-miterlimit:2;">
	<path
		d="M13.002,26.011C13.928,24.651 13.861,23.63 12.591,22.36C11.318,21.09 10.577,19.227 10.577,19.227C10.577,19.227 10.301,18.149 9.671,18.251C9.041,18.352 8.579,19.962 9.9,20.949C11.217,21.936 9.637,22.606 9.128,21.68C8.623,20.753 7.235,18.372 6.515,17.914C5.797,17.459 5.292,17.712 5.46,18.655C5.629,19.595 8.637,21.872 8.344,22.36C8.051,22.855 7.02,21.784 7.02,21.784C7.02,21.784 3.796,18.85 3.092,19.615C2.392,20.379 3.628,21.019 5.383,22.084C7.144,23.148 7.283,23.431 7.033,23.835C6.781,24.24 2.897,20.962 2.533,22.353C2.169,23.738 6.498,24.139 6.232,25.099C5.962,26.059 3.18,23.286 2.614,24.364C2.041,25.445 6.538,26.715 6.575,26.725C8.024,27.103 11.712,27.901 13.002,26.011Z"
		style="fill:rgb(196,137,0);fill-rule:nonzero;" />
	<path
		d="M18.974,26.011C18.048,24.651 18.112,23.63 19.385,22.36C20.655,21.09 21.396,19.227 21.396,19.227C21.396,19.227 21.672,18.149 22.306,18.251C22.932,18.352 23.394,19.962 22.077,20.949C20.756,21.936 22.339,22.606 22.845,21.68C23.353,20.753 24.741,18.372 25.459,17.914C26.176,17.459 26.685,17.712 26.513,18.655C26.344,19.595 23.34,21.872 23.633,22.36C23.923,22.855 24.953,21.784 24.953,21.784C24.953,21.784 28.18,18.85 28.881,19.615C29.581,20.379 28.349,21.019 26.59,22.084C24.829,23.148 24.694,23.431 24.94,23.835C25.192,24.24 29.076,20.962 29.44,22.353C29.804,23.738 25.479,24.139 25.745,25.099C26.014,26.059 28.793,23.286 29.363,24.364C29.932,25.445 25.438,26.715 25.401,26.725C23.949,27.103 20.261,27.901 18.974,26.011Z"
		style="fill:rgb(196,137,0);fill-rule:nonzero;" />
	<path
		d="M17.343,25.858C16.871,25.917 16.39,25.947 15.902,25.947C15.459,25.947 15.022,25.922 14.59,25.873C15.335,24.274 14.988,22.783 13.541,21.339C12.608,20.402 11.985,19.025 11.857,18.721C11.594,17.825 10.9,16.828 9.752,16.828C9.132,16.838 8.554,17.147 8.202,17.657C7.865,17.233 7.535,16.899 7.239,16.707C6.843,16.439 6.379,16.291 5.901,16.279C5.356,16.279 4.871,16.502 4.531,16.909C4.525,16.917 4.519,16.924 4.513,16.931C4.306,16.067 4.197,15.166 4.197,14.242C4.197,7.821 9.481,2.537 15.902,2.537C22.324,2.537 27.608,7.821 27.608,14.242C27.608,15.133 27.506,16.003 27.313,16.84C26.984,16.52 26.55,16.347 26.069,16.347C25.592,16.359 25.128,16.507 24.732,16.775C24.436,16.967 24.106,17.301 23.769,17.725C23.417,17.215 22.839,16.906 22.219,16.896C21.071,16.896 20.377,17.893 20.114,18.789C19.986,19.093 19.363,20.47 18.43,21.407C17.008,22.826 16.649,24.291 17.343,25.858ZM13.282,18.368C14,18.89 15.384,19 15.5,19C15.652,19 17,19 18.479,18.277C19.917,17.575 20.197,15.67 20.197,14.673C20.197,13.885 19.668,14.134 18.819,14.552L18.772,14.576C17.994,14.963 16.957,15.475 15.818,15.475C14.68,15.475 13.645,14.963 12.864,14.576C11.988,14.141 11.439,13.868 11.439,14.673C11.439,15.701 11.931,17.388 13.282,18.368ZM19.5,12C19.931,12.148 20.305,12.09 20.739,11.861C21.289,11.569 21.634,10.995 21.634,10.373C21.634,9.449 20.874,8.689 19.95,8.689C19.026,8.689 18.265,9.449 18.265,10.373C18.265,10.649 18.333,10.92 18.462,11.163C18.668,11.551 19.5,12 19.5,12ZM12,12C11.569,12.148 11.17,12.09 10.739,11.861C10.189,11.569 9.844,10.995 9.844,10.373C9.844,9.449 10.604,8.689 11.528,8.689C12.452,8.689 13.213,9.449 13.213,10.373C13.213,10.649 13.145,10.92 13.016,11.163C12.81,11.551 12,12 12,12Z"
		style="fill:rgb(196,137,0);" />
</svg>