<svg id="icon" xmlns="http://www.w3.org/2000/svg" viewBox="65 65 145 145" width="32" height="32">
  <path fill="#c48900" d="M99.4 151.2a14.3 14.3 0 1 1-14.3-14.3h14.3v14.3zm7.2 0a14.3 14.3 0 0 1 28.6 0v35.7a14.3 14.3 0 0 1-28.6 0v-35.7z"/>
  <path fill="#c48900" d="M120.9 93.8a14.3 14.3 0 1 1 14.3-14.3v14.3h-14.3zm0 7.2a14.3 14.3 0 0 1 0 28.6H85.2a14.3 14.3 0 0 1 0-28.6h35.7z"/>
  <path fill="#c48900" d="M178.3 115.3a14.3 14.3 0 1 1 14.3 14.3h-14.3v-14.3zm-7.2 0a14.3 14.3 0 0 1-28.6 0V79.5a14.3 14.3 0 0 1 28.6 0v35.8z"/>
  <path fill="#c48900" d="M156.8 172.7a14.3 14.3 0 1 1-14.3 14.3v-14.3h14.3zm0-7.2a14.3 14.3 0 0 1 0-28.6h35.7a14.3 14.3 0 0 1 0 28.6h-35.7z"/>
</svg>
